<?xml version="1.0" standalone="no"?>
<!DOCTYPE svg PUBLIC "-//W3C//DTD SVG 20010904//EN"
 "http://www.w3.org/TR/2001/REC-SVG-20010904/DTD/svg10.dtd">
<svg version="1.0" xmlns="http://www.w3.org/2000/svg"
 width="256.000000pt" height="256.000000pt" viewBox="0 0 256.000000 256.000000"
 preserveAspectRatio="xMidYMid meet">

<g transform="translate(0.000000,256.000000) scale(0.100000,-0.100000)"
fill="#000000" stroke="none">
<path d="M1335 2231 c-11 -5 -28 -18 -38 -28 -10 -12 -130 -61 -289 -118 -154
-56 -283 -109 -299 -122 -53 -45 -49 -85 38 -319 2 -5 -91 -93 -206 -193 -115
-101 -212 -190 -215 -198 -3 -8 -6 -32 -6 -52 0 -36 22 -63 364 -449 201 -226
374 -416 385 -421 30 -17 73 -13 106 8 17 11 106 87 198 169 160 142 173 151
254 181 l85 31 220 0 c175 0 225 3 248 15 63 33 60 -8 60 747 l0 688 -29 32
-29 33 -414 2 c-227 1 -422 -2 -433 -6z m823 -83 c16 -16 17 -1299 2 -1329
-10 -18 -25 -19 -405 -19 -380 0 -395 1 -405 19 -14 27 -14 1295 0 1322 10 18
25 19 403 19 292 0 396 -3 405 -12z m-888 -706 c0 -711 -3 -674 60 -707 16 -8
53 -15 82 -15 65 -1 56 -6 -77 -55 -121 -44 -132 -44 -150 -3 -37 91 -435
1203 -435 1218 0 10 6 22 13 28 14 12 474 181 495 181 9 1 12 -135 12 -647z
m-320 -362 c90 -250 172 -467 182 -482 29 -42 89 -56 146 -35 26 9 47 15 49
14 6 -7 -197 -177 -211 -177 -15 0 -726 792 -726 809 0 14 383 342 390 334 4
-4 80 -213 170 -463z"/>
<path d="M1620 1710 c-45 -11 -107 -76 -115 -124 -15 -76 -1 -101 117 -223 72
-73 119 -113 132 -113 26 0 230 202 245 243 16 43 13 86 -10 133 -36 76 -122
109 -194 74 -41 -20 -41 -20 -80 0 -43 22 -44 22 -95 10z m88 -105 c17 -14 37
-25 47 -25 9 0 31 11 49 25 49 37 87 30 115 -22 19 -37 4 -66 -82 -151 l-82
-82 -82 82 c-96 97 -106 121 -68 166 33 39 63 41 103 7z"/>
<path d="M956 1922 c-2 -4 -10 -38 -16 -75 -7 -39 -23 -83 -37 -103 -38 -56
-31 -67 58 -98 25 -9 64 -32 87 -51 63 -55 85 -46 96 40 3 28 19 75 35 106 35
69 29 82 -42 103 -29 8 -71 31 -94 51 -39 33 -76 45 -87 27z m104 -132 l39
-20 -15 -44 -16 -45 -39 21 c-21 11 -39 22 -39 25 0 11 23 83 27 83 2 0 21 -9
43 -20z"/>
<path d="M542 1288 c-16 -16 -16 -149 0 -183 14 -30 55 -55 93 -55 30 0 142
104 145 135 5 45 -1 67 -25 90 -22 23 -32 25 -113 25 -55 0 -92 -4 -100 -12z"/>
</g>
</svg>
