<?xml version="1.0" encoding="UTF-8"?>
<svg version="1.1" xmlns="http://www.w3.org/2000/svg" width="512" height="512">
<path d="M0 0 C0.8246176 -0.00367669 1.64923521 -0.00735338 2.49884123 -0.01114148 C5.26611509 -0.02216742 8.03335139 -0.02602034 10.80064392 -0.02983093 C12.78336201 -0.0360965 14.76607892 -0.04274338 16.74879456 -0.04974365 C23.26468591 -0.07077857 29.78057747 -0.08114675 36.29649353 -0.09111023 C38.54115244 -0.09515825 40.78581123 -0.09927519 43.03046989 -0.10346031 C53.5783818 -0.12251215 64.12628671 -0.13674219 74.67421252 -0.14507228 C86.84058365 -0.1548396 99.0067726 -0.18114608 111.17307955 -0.22157317 C120.58217301 -0.25176272 129.99121434 -0.26654393 139.40035528 -0.26985329 C145.01725087 -0.27220088 150.63395183 -0.28112335 156.25079536 -0.30631447 C161.53923594 -0.32964919 166.8273545 -0.33380662 172.11583328 -0.32355309 C174.05113358 -0.3230589 175.98645002 -0.32934453 177.92170143 -0.34310913 C191.39950151 -0.43356498 203.69056385 0.14580853 213.88633728 10.14717102 C219.99364065 17.04291725 225.20178536 25.91304098 224.7879715 35.4029808 C224.17059517 40.82422885 223.1192998 46.17790224 222.14748383 51.54442406 C216.63193931 84.1470606 212.03307628 124.47533147 232.10753787 153.02391356 C246.02573393 172.0172384 263.27629054 188.4636155 280.51133728 204.39717102 C281.16143611 204.9985053 281.81153494 205.59983958 282.48133373 206.21939611 C294.2299942 217.06412129 306.11700096 227.7545294 318.34916687 238.05252075 C318.91822459 238.53312625 319.48728231 239.01373176 320.0735842 239.50890106 C322.7168942 241.7392812 325.36926174 243.95405392 328.04566765 246.14489651 C336.2344421 252.98599219 344.13919902 261.21195742 345.88633728 272.14717102 C347.04247496 286.78676433 345.12827539 296.63006454 335.53202438 308.13007927 C330.9470099 313.43443968 325.95622785 318.34701819 320.98838806 323.28804016 C319.81910808 324.45839593 318.65026186 325.6291852 317.48181152 326.80036926 C314.34009467 329.94688636 311.19224191 333.08719535 308.04302454 336.2262032 C304.73795668 339.52242324 301.43822662 342.82397928 298.13777161 346.12481689 C292.60521752 351.65643817 287.06882509 357.18419346 281.52989197 362.70942688 C275.12630845 369.09723062 268.72802182 375.49030114 262.3326894 381.886365 C255.51077706 388.70895215 248.68506779 395.5277308 241.85822439 402.34538341 C239.89387531 404.30760145 237.93023765 406.27052905 235.96675491 408.23361397 C232.8877877 411.3115781 229.80628781 414.38698422 226.72279167 417.46041107 C225.59116322 418.5891157 224.46038184 419.7186703 223.33050346 420.84912682 C221.79071484 422.38940523 220.24789412 423.92658029 218.70423889 425.46298218 C217.84114672 426.32439851 216.97805454 427.18581484 216.08880806 428.07333469 C213.05804501 430.9270872 211.62387685 432.12083032 207.38633728 432.27217102 C206.23133728 432.23092102 205.07633728 432.18967102 203.88633728 432.14717102 C199.2031806 432.14717102 196.83129474 435.42661546 193.65440369 438.5316925 C191.44257664 440.8674677 189.98195904 442.52795053 189.48399353 445.75263977 C189.66426318 447.34967657 189.86407042 448.94467112 190.08654785 450.53637695 C189.81213433 454.11479537 188.42255637 455.30950148 185.96031189 457.87690735 C185.13377106 458.74908905 184.30723022 459.62127075 183.4556427 460.5198822 C182.60777191 461.38688751 181.75990112 462.25389282 180.88633728 463.14717102 C180.14376678 463.9195108 179.40119629 464.69185059 178.63612366 465.4875946 C176.3840423 467.81251281 174.1102613 470.11385945 171.82774353 472.40888977 C170.99854904 473.24378433 170.16935455 474.07867889 169.31503296 474.93887329 C167.57610296 476.68717046 165.83577681 478.43408 164.09410095 480.17964172 C161.45184571 482.83165148 158.82046552 485.49415536 156.18907166 488.15693665 C154.48595639 489.86657952 152.78220166 491.57558567 151.07774353 493.28388977 C150.30451248 494.06946762 149.53128143 494.85504547 148.73461914 495.66442871 C138.47020144 505.88782865 129.2304691 512.34413613 114.51133728 512.58467102 C101.55293792 512.45816533 93.32186586 507.97610313 83.88633728 499.14717102 C81.53501002 496.37896081 79.38852836 493.52507616 77.24838829 490.59116745 C63.34175438 471.59331378 46.08951135 450.36574257 21.80367672 445.99725556 C-0.11124263 442.69935749 -22.7732124 444.116795 -44.80800402 445.326617 C-55.58597701 445.90915861 -66.3686516 446.16256677 -77.15858459 446.41279602 C-80.96643309 446.50257416 -84.77421672 446.59454279 -88.5819397 446.6894989 C-89.96529836 446.72392233 -89.96529836 446.72392233 -91.37660366 446.75904119 C-97.66539272 446.92457173 -103.94669581 447.17749064 -110.23071289 447.47032166 C-112.71906491 447.57838558 -115.2074743 447.68502593 -117.69590187 447.79133415 C-119.96910778 447.89576434 -122.24012269 448.02383325 -124.51203918 448.15289307 C-135.61104569 448.68326799 -144.61267072 446.93842056 -153.34022522 439.76045227 C-161.15790911 432.64877067 -166.14530536 423.9101655 -166.74007511 413.13825798 C-166.76588975 410.98764645 -166.76511097 408.83659955 -166.74185181 406.68595886 C-166.74894619 405.49036413 -166.75604058 404.2947694 -166.76334995 403.06294453 C-166.77779771 399.77977027 -166.77013507 396.49755134 -166.75262702 393.21442103 C-166.73916595 389.66017709 -166.75472102 386.10603736 -166.76644897 382.55180359 C-166.78476416 375.60367449 -166.77635497 368.65582786 -166.75836075 361.70770775 C-166.74429933 356.0587461 -166.74044953 350.4098608 -166.74380302 344.76088333 C-166.74428047 343.95499096 -166.74475791 343.14909858 -166.74524982 342.31878523 C-166.74627621 340.68133693 -166.74733157 339.04388865 -166.74841558 337.40644039 C-166.75696997 322.94935549 -166.74034752 308.49240645 -166.71058655 294.03535461 C-166.68174148 280.02292681 -166.67467231 266.0106946 -166.69007874 251.99824524 C-166.70685619 236.71801168 -166.7108602 221.43787085 -166.69336838 206.15763485 C-166.69152409 204.52703231 -166.68968936 202.89642975 -166.6878643 201.26582718 C-166.68695221 200.46365395 -166.68604012 199.66148073 -166.6851004 198.83499923 C-166.67950542 193.19494949 -166.68279236 187.55494518 -166.68940926 181.91489792 C-166.69715664 175.03867079 -166.69033912 168.16263589 -166.66523422 161.28644739 C-166.65277282 157.78131806 -166.64655149 154.27648748 -166.65777588 150.77134705 C-166.66648139 146.96539052 -166.65049366 143.16030013 -166.62832642 139.35441589 C-166.63656718 138.25557284 -166.64480795 137.15672979 -166.65329844 136.02458847 C-166.52943312 124.48014975 -162.44974849 115.7269524 -154.48866272 107.45967102 C-146.90583873 100.4385377 -138.24268636 97.97229362 -128.11366272 97.83467102 C-127.04631897 97.79116516 -127.04631897 97.79116516 -125.95741272 97.7467804 C-122.44109065 97.70413843 -120.48488051 97.87513798 -117.61366272 99.97920227 C-116.11366272 102.14717102 -116.11366272 102.14717102 -116.11366272 105.14717102 C-109.18366272 105.14717102 -102.25366272 105.14717102 -95.11366272 105.14717102 C-94.78366272 103.49717102 -94.45366272 101.84717102 -94.11366272 100.14717102 C-90.7879075 97.93000087 -89.77760032 97.90173664 -85.90785217 97.92012024 C-84.84697891 97.9202713 -83.78610565 97.92042236 -82.69308472 97.920578 C-81.54925827 97.93090057 -80.40543182 97.94122314 -79.22694397 97.95185852 C-78.05479843 97.95468842 -76.88265289 97.95751831 -75.67498779 97.96043396 C-71.92527629 97.97164349 -68.17580223 97.99674974 -64.42616272 98.02217102 C-61.88645262 98.03219981 -59.34673879 98.04132583 -56.80702209 98.04951477 C-50.57582107 98.07158535 -44.34475886 98.10507063 -38.11366272 98.14717102 C-38.11810394 97.38010834 -38.12254517 96.61304565 -38.12712097 95.82273865 C-38.16737292 88.556086 -38.19773554 81.28948823 -38.21728706 74.02275276 C-38.22767693 70.28780952 -38.24174725 66.55295923 -38.26454163 62.81806946 C-38.28644271 59.20650711 -38.29826731 55.59503357 -38.30341721 51.98340988 C-38.30708224 50.61286397 -38.31423814 49.24232232 -38.32512283 47.87181473 C-38.43470387 33.48830296 -37.11990048 21.212794 -26.92616272 10.33467102 C-18.92796304 2.77784357 -10.79052846 -0.00258122 0 0 Z " fill="#020202" transform="translate(166.11366271972656,-0.1471710205078125)"/>
<path d="M0 0 C6.93 0 13.86 0 21 0 C21.99 1.98 22.98 3.96 24 6 C25.05993494 7.28361709 25.05993494 7.28361709 27.50298309 7.12469864 C29.18753979 7.12463633 29.18753979 7.12463633 30.90612793 7.12457275 C32.19027588 7.12713577 33.47442383 7.12969879 34.79748535 7.13233948 C36.23413093 7.1302692 37.67077644 7.12814645 39.10742188 7.12597656 C40.61018934 7.12737054 42.11295641 7.12926934 43.61572266 7.13163757 C46.86075659 7.1361445 50.10577784 7.13799088 53.35081482 7.13809967 C58.48655412 7.13923808 63.6222212 7.15206398 68.75793457 7.16766357 C70.05730178 7.17152285 70.05730178 7.17152285 71.38291883 7.1754601 C73.15488185 7.18072718 74.92684481 7.18601266 76.69880772 7.19131613 C88.65924195 7.2264295 100.61958811 7.25298287 112.58007812 7.25048828 C120.64109276 7.24889736 128.70186258 7.26499418 136.76279879 7.30119491 C141.02826586 7.31962658 145.29332443 7.32902294 149.55882263 7.31671906 C153.57765767 7.30524052 157.59576357 7.31708278 161.61450195 7.34635353 C163.08458643 7.35296802 164.55473821 7.35117215 166.02479553 7.34005547 C174.45968497 7.2815964 181.22894961 7.57797947 188 13 C191.82733438 16.77532011 195.65055533 20.79051258 196.25415033 26.33425307 C196.25610125 27.20327325 196.25805218 28.07229343 196.26006222 28.96764755 C196.26712781 29.97389608 196.2741934 30.98014461 196.2814731 32.01688552 C196.27905802 33.1203703 196.27664293 34.22385509 196.27415466 35.36077881 C196.27939134 36.53461506 196.28462802 37.70845131 196.29002339 38.91785836 C196.30244407 42.17706739 196.30586655 45.43614295 196.30542648 48.69537115 C196.30707409 52.21016254 196.3201396 55.72491458 196.33161926 59.23968506 C196.35447322 66.92569006 196.36239036 74.61166746 196.36744571 82.29770184 C196.3707024 87.09727833 196.37722473 91.8968468 196.3844471 96.69641876 C196.40401388 109.98615638 196.42041752 123.27588654 196.42332363 136.5656395 C196.4235112 137.41615856 196.42369877 138.26667762 196.42389202 139.14296998 C196.42425827 140.86716986 196.42462197 142.59136973 196.42498314 144.31556961 C196.42516595 145.17146094 196.42534876 146.02735226 196.42553711 146.90917969 C196.42580793 148.19458453 196.42580793 148.19458453 196.42608423 149.50595716 C196.42962564 163.3904668 196.45664556 177.27482132 196.494035 191.15927717 C196.5321187 205.4156872 196.55148111 219.67202026 196.55178314 233.92848229 C196.55236772 241.93239735 196.56085947 249.93612738 196.58978081 257.93999481 C196.61429563 264.75571719 196.62157706 271.57118709 196.60653328 278.38694164 C196.59936451 281.86350277 196.60021934 285.33956534 196.62294388 288.81607056 C196.64332369 292.58824587 196.63289758 296.35912841 196.61473083 300.13128662 C196.6279308 301.22584852 196.64113077 302.32041042 196.65473074 303.44814086 C196.57095722 311.06039973 194.85014192 315.93949812 189.59273332 321.48415542 C183.63457509 326.87647505 177.64343484 328.45137118 169.82255554 328.39440918 C169.02733752 328.40050028 168.23211949 328.40659139 167.41280395 328.41286707 C164.76292948 328.42944212 162.11353844 328.42472917 159.46362305 328.41992188 C157.55765282 328.42726546 155.65168705 328.43585253 153.74572754 328.44558716 C148.57824057 328.46778285 143.41091317 328.47073476 138.24338508 328.46883965 C133.92446157 328.46871984 129.60557175 328.47728821 125.28665763 328.48561716 C115.09383283 328.50484474 104.90108992 328.5077376 94.70825195 328.50097656 C84.2057236 328.49433804 73.70354665 328.51719414 63.20108956 328.55429029 C54.17324545 328.58501667 45.1455142 328.59634407 36.11761886 328.59245348 C30.73048777 328.59038881 25.3436301 328.59582167 19.95654869 328.62034607 C14.887945 328.64265871 9.81991125 328.64069766 4.75130463 328.62041855 C2.89621599 328.61701637 1.04108866 328.62206332 -0.81394768 328.63640213 C-20.47236531 328.77781175 -20.47236531 328.77781175 -28.58989429 321.59273529 C-35.02963368 314.57893837 -35.43886552 307.43057753 -35.39440918 298.39907837 C-35.40050028 297.23563506 -35.40659139 296.07219176 -35.41286707 294.8734926 C-35.42660468 291.65713134 -35.42695775 288.44109561 -35.4214921 285.22472 C-35.41881648 281.7508521 -35.43336364 278.27704894 -35.44558716 274.8032074 C-35.46662076 268.00252975 -35.47118321 261.2019374 -35.46939927 254.40123107 C-35.46809063 248.87228821 -35.471901 243.34337191 -35.47932434 237.81443405 C-35.48142358 236.22062981 -35.48352118 234.62682557 -35.48561716 233.03302133 C-35.48666069 232.23969146 -35.48770422 231.44636158 -35.48877937 230.62899141 C-35.5076733 215.63181949 -35.50663411 200.63469651 -35.49981004 185.63751762 C-35.49423488 171.92523001 -35.51506029 158.21312926 -35.54817051 144.50088532 C-35.58192373 130.41273956 -35.59707383 116.32468327 -35.59245348 102.23649633 C-35.59021048 94.33041235 -35.59542717 86.42450108 -35.62034607 78.51845169 C-35.6413803 71.78772552 -35.64493029 65.05726675 -35.62604648 58.32652952 C-35.61690159 54.89438518 -35.61570632 51.46273915 -35.63640213 48.03063393 C-35.65456585 44.30493074 -35.64186399 40.58055202 -35.62145996 36.85488892 C-35.63397781 35.77695906 -35.64649566 34.69902921 -35.65939283 33.58843482 C-35.56981403 25.95210667 -33.79584149 20.18323553 -28.59275961 14.44914019 C-22.14936213 8.63622538 -16.1242422 7.66478002 -7.76953125 7.50390625 C-4.30331274 6.87324026 -3.1570625 5.73227917 -1 3 C-0.67 2.01 -0.34 1.02 0 0 Z " fill="#EEECFE" transform="translate(50,105)"/>
<path d="M0 0 C6.48835088 3.68966333 11.48134268 9.40605734 16.6874218 14.67818642 C18.0423641 16.02826689 19.3985959 17.37705426 20.75601006 18.72464943 C24.42230626 22.37220567 28.06961058 26.03821486 31.713166 29.70846963 C35.53515833 33.55316563 39.37263756 37.38234965 43.20794487 41.21375465 C49.64288184 47.64692846 56.06577924 54.09193056 62.48136711 60.54439735 C69.89417685 67.99957421 77.32452635 75.43690233 84.76477855 82.86468488 C91.93110949 90.01962076 99.08603566 97.18585283 106.23544312 104.35769653 C109.27454858 107.40608 112.31737589 110.45067509 115.36323166 113.49231339 C118.94879732 117.07410743 122.52419106 120.66575956 126.09201813 124.26522064 C127.40152784 125.5832027 128.71442796 126.89782624 130.03096581 128.20878792 C131.82985066 130.00120824 133.61591987 131.80551262 135.3993206 133.6133213 C136.18140732 134.38407005 136.18140732 134.38407005 136.97929376 135.17038947 C141.50803092 139.80906071 144.3581649 144.92405372 144.36930656 151.54220009 C144.39831047 152.6830204 144.39831047 152.6830204 144.42790031 153.84688759 C142.5683074 164.41874652 135.45859108 170.82047737 128.12663078 178.02413368 C126.90654418 179.24116894 125.6875689 180.45931917 124.46961784 181.67849159 C121.1750391 184.97024527 117.8653904 188.24645702 114.55288649 191.52015829 C111.08521169 194.95273815 107.63219017 198.39999352 104.17768669 201.84581947 C97.63801943 208.3648188 91.08613817 214.87139079 84.52937233 221.37318766 C74.89688679 230.92594198 65.2819681 240.49635224 55.66819763 250.06793594 C54.25030038 251.47957514 52.83240221 252.8912134 51.4145031 254.30285072 C50.72245533 254.99190077 50.03040756 255.68095083 49.31738865 256.39088118 C45.20044544 260.48913345 41.07962259 264.58343472 36.95535445 268.67431521 C34.39508025 271.21441662 31.83669152 273.75641159 29.2786274 276.29873848 C28.09030087 277.47878905 26.90108793 278.65794775 25.71093559 279.83615685 C24.08931289 281.44165008 22.47077065 283.05018762 20.85291862 284.65947914 C19.94553885 285.55944304 19.03815907 286.45940693 18.10328293 287.38664246 C15.47544853 290.14648267 13.99128407 291.73538584 13.74430656 295.60470009 C13.79164087 298.53038532 13.79164087 298.53038532 14.59318352 300.65426064 C14.93180656 302.66720009 14.93180656 302.66720009 14.01066399 304.33053017 C12.40698737 306.07876355 10.79626714 307.80113476 9.11930656 309.47970009 C8.52416252 310.07991982 7.92901848 310.68013954 7.31583977 311.29854774 C2.77997727 315.55293265 2.77997727 315.55293265 -0.88069344 316.04610634 C-3.38069344 315.54220009 -3.38069344 315.54220009 -5.65193367 314.89772987 C-8.07559492 314.42840822 -8.07559492 314.42840822 -9.92000008 315.75429726 C-10.51675545 316.32206886 -11.11351082 316.88984047 -11.72834969 317.47481728 C-12.42049568 318.12575356 -13.11264168 318.77668983 -13.8257618 319.44735146 C-14.56576424 320.1799015 -15.30576668 320.91245155 -16.06819344 321.66720009 C-16.8436451 322.43165443 -17.61909676 323.19610878 -18.41804695 323.98372841 C-21.02923417 326.59401246 -23.6126547 329.22975089 -26.19319344 331.87032509 C-27.63831249 333.33754126 -29.08526725 334.80293248 -30.53221321 336.26834679 C-34.06485703 339.84635679 -37.59326153 343.42832967 -41.10530281 347.02657509 C-43.56746733 349.54839741 -46.04190305 352.05760041 -48.52467537 354.55912971 C-49.91163132 355.96336965 -51.28525589 357.3807373 -52.65852547 358.79836464 C-58.35256467 364.51642876 -62.66059274 367.79475288 -70.75569344 369.10079384 C-71.90038094 369.10272743 -71.90038094 369.10272743 -73.06819344 369.10470009 C-74.21288094 369.13370399 -74.21288094 369.13370399 -75.38069344 369.16329384 C-84.53882598 367.47276647 -90.21492574 361.06522148 -96.47444344 354.68673134 C-97.44869352 353.70754956 -98.42376493 352.72918436 -99.39961433 351.75159645 C-101.42939067 349.71422485 -103.45256777 347.67061161 -105.47053719 345.62154579 C-108.06233681 342.98988336 -110.6650541 340.36936874 -113.27202797 337.75274563 C-115.75972937 335.25510583 -118.24242942 332.75252113 -120.72444344 330.24923134 C-121.19952843 329.7707506 -121.67461342 329.29226986 -122.16409492 328.7992897 C-123.4975144 327.45435752 -124.82690872 326.10543817 -126.15608406 324.75631142 C-126.9136097 323.98894157 -127.67113533 323.22157173 -128.45161629 322.43094826 C-130.06819344 320.66720009 -130.06819344 320.66720009 -130.06819344 319.66720009 C-129.08592781 319.55505165 -129.08592781 319.55505165 -128.08381844 319.44063759 C-117.49810949 317.91557783 -108.1117512 313.89467493 -100.75569344 305.95626259 C-96.51480507 300.20357605 -93.01828847 292.77875526 -92.86287117 285.56295204 C-92.84292595 284.7423278 -92.82298073 283.92170357 -92.80243111 283.07621193 C-92.78571861 282.19487083 -92.76900612 281.31352974 -92.75178719 280.40548134 C-92.73100609 279.49968834 -92.71022499 278.59389534 -92.68881416 277.66065407 C-92.62342786 274.76707992 -92.56448439 271.87341502 -92.50569344 268.97970009 C-92.46249784 267.01810216 -92.41888321 265.05651341 -92.37483406 263.09493446 C-92.26775761 258.28578269 -92.16645929 253.47653963 -92.06819344 248.66720009 C-90.469136 248.95571385 -88.87020514 249.24492913 -87.27131844 249.53438759 C-86.26133797 249.7171122 -85.2513575 249.89983681 -84.21077156 250.08809853 C-81.34095871 250.61693601 -78.47849528 251.17538649 -75.61506844 251.73751259 C-43.96078515 257.663295 -8.13872477 257.98695812 19.59977531 239.37813759 C31.16676521 230.8918033 37.8186462 219.69633533 40.93180656 205.66720009 C41.99408504 188.40952849 38.73163078 175.71695107 28.68180656 161.47970009 C20.0627039 152.66470873 8.9312622 147.15765315 -3.06819344 144.66720009 C-3.30602547 143.65012978 -3.30602547 143.65012978 -3.54866219 142.61251259 C-7.13039155 128.32517225 -13.92696111 116.33121504 -26.48616219 108.13204384 C-30.5248157 105.84082588 -34.65969479 104.10936011 -39.06819344 102.66720009 C-40.14327156 102.31012978 -41.21834969 101.95305946 -42.32600594 101.58516884 C-58.02690825 97.73369489 -71.94573464 101.81910332 -85.47444344 109.98360634 C-87.75315277 111.46270833 -89.90572833 113.02610509 -92.06819344 114.66720009 C-97.64593506 76.61000309 -97.64593506 76.61000309 -87.74695396 62.08979225 C-80.17795637 52.25803251 -70.87623468 43.97931693 -61.59242439 35.81008339 C-57.56065234 32.20908909 -53.67290809 28.45844465 -49.76350594 24.72579384 C-16.40633839 -6.80552895 -16.40633839 -6.80552895 0 0 Z " fill="#EEECFE" transform="translate(353.06819343566895,128.33279991149902)"/>
<path d="M0 0 C9.32800404 6.5209301 17.30717524 14.93476117 25.32470703 22.95410156 C27.48570177 25.11073066 29.66220943 27.2508156 31.83984375 29.390625 C54.24019044 51.60874089 69.91317554 76.56673171 70.3125 109 C70.21685747 124.77771925 65.82877271 138.13359849 54.9375 149.875 C43.76657449 160.38700947 29.48776477 165.51238 14.23828125 165.10546875 C13.49964844 165.07066406 12.76101562 165.03585937 12 165 C12.81020089 167.79235287 13.6230512 170.58388621 14.4375 173.375 C14.66759766 174.1690625 14.89769531 174.963125 15.13476562 175.78125 C15.35712891 176.54179687 15.57949219 177.30234375 15.80859375 178.0859375 C16.01282959 178.7876709 16.21706543 179.4894043 16.42749023 180.21240234 C16.97376321 182.07510758 16.97376321 182.07510758 18 184 C18.71205809 190.61196801 18.92989704 196.79127557 14.71505737 202.24279785 C9.94180962 207.13334049 3.35830268 208.45397316 -3.24368286 208.55578613 C-4.09397064 208.54768921 -4.94425842 208.53959229 -5.8203125 208.53125 C-6.72321014 208.5350769 -7.62610779 208.53890381 -8.55636597 208.54284668 C-10.45051194 208.54555 -12.34469627 208.53830046 -14.23876953 208.52148438 C-17.12487328 208.50000094 -20.00850243 208.52136531 -22.89453125 208.546875 C-24.74479711 208.54423242 -26.59506144 208.53910889 -28.4453125 208.53125 C-29.29964874 208.53934692 -30.15398499 208.54744385 -31.03421021 208.55578613 C-37.53830604 208.45470335 -41.88778026 206.91683375 -46.7421875 202.3671875 C-51.27374504 196.3980324 -51.82432869 192.45441316 -51 185 C-49.90578735 181.33023988 -48.61397027 177.81610236 -47.19140625 174.26171875 C-46.05388968 171.14753405 -45.43153851 168.27870064 -45 165 C-45.78761719 165.04640625 -46.57523438 165.0928125 -47.38671875 165.140625 C-61.71604247 165.61544283 -74.10180629 161.19169081 -85.28125 152.15625 C-95.91134724 142.18031259 -102.41350566 128.80503032 -103.203125 114.2578125 C-103.81188657 82.44424121 -90.23648018 56.3085336 -68.46777344 33.52197266 C-62.19705007 27.01969563 -55.8925611 20.6063041 -48.98046875 14.77734375 C-46.57651861 12.6199526 -44.40766746 10.28314003 -42.1875 7.9375 C-30.25087659 -4.16516609 -15.43678209 -7.80146891 0 0 Z " fill="#7F7ACE" transform="translate(147,171)"/>
<path d="M0 0 C10.18541058 8.41067995 14.61815562 17.56108163 16.0625 30.5 C16.72207303 33.55052524 17.23521834 34.55141375 19.6875 36.390625 C22.3304986 37.7121243 24.75092004 37.79433019 27.6875 38.140625 C38.8380225 39.84758825 46.62636498 44.54679711 53.6875 53.390625 C59.55129998 63.06099681 60.83619049 72.2571633 59.6875 83.390625 C56.59367799 95.8491549 48.44981795 103.82168515 37.9296875 110.5078125 C24.67676335 117.90879612 7.34548458 119.77595063 -7.5625 119.640625 C-9.20255005 119.63047363 -9.20255005 119.63047363 -10.87573242 119.62011719 C-19.48863882 119.51077924 -27.82100964 118.89597053 -36.3125 117.390625 C-37.158125 117.2457666 -38.00375 117.1009082 -38.875 116.95166016 C-41.62902956 116.47195437 -44.37735496 115.96807855 -47.125 115.453125 C-47.99229736 115.29553711 -48.85959473 115.13794922 -49.75317383 114.97558594 C-50.56294678 114.81477539 -51.37271973 114.65396484 -52.20703125 114.48828125 C-52.92737549 114.34914307 -53.64771973 114.21000488 -54.38989258 114.06665039 C-56.73717906 113.24129975 -57.72803259 112.2988882 -59.3125 110.390625 C-59.62442551 107.47603353 -59.75310208 104.77260092 -59.74829102 101.85522461 C-59.75836685 100.98327454 -59.76844269 100.11132446 -59.77882385 99.21295166 C-59.80737659 96.32282763 -59.81318542 93.43322517 -59.81640625 90.54296875 C-59.82604712 88.53096807 -59.83613958 86.51896951 -59.84666443 84.50697327 C-59.86464751 80.2826755 -59.87018371 76.05856187 -59.8684082 71.83422852 C-59.86810434 66.43942124 -59.9089489 61.0458075 -59.96072483 55.65128231 C-59.99421316 51.49118208 -60.00016181 47.33136566 -59.99857903 43.17114449 C-60.00210441 41.18374098 -60.01529106 39.19632898 -60.03857613 37.20905876 C-60.24757718 17.51763765 -60.24757718 17.51763765 -53.3125 9.390625 C-52.83531021 8.7350914 -52.35812042 8.0795578 -51.86647034 7.40415955 C-47.05774835 0.81535756 -38.68209786 -4.93435023 -30.58984375 -6.390625 C-19.06043988 -7.4980806 -9.73280147 -6.77350373 0 0 Z " fill="#E16D7D" transform="translate(320.3125,249.609375)"/>
<path d="M0 0 C51.81 0 103.62 0 157 0 C157 19.8 157 39.6 157 60 C150.565 61.98 150.565 61.98 144 64 C135.82648428 69.36706937 129.19216684 76.56580139 122.34375 83.49609375 C121.14883081 84.69729533 119.95338699 85.89797524 118.75744629 87.09815979 C115.63663224 90.23217184 112.52147094 93.37173584 109.40795898 96.51300049 C104.39844898 101.56593907 99.38188258 106.61185175 94.36225891 111.65474129 C92.61097662 113.41626638 90.86312867 115.18114733 89.11560059 116.94639587 C88.05309112 118.01572672 86.99047505 119.08495166 85.92773438 120.15405273 C85.44052917 120.6479953 84.95332397 121.14193787 84.45135498 121.65084839 C83.31974786 122.78632947 82.16258922 123.89626169 81 125 C80.67 125 80.34 125 80 125 C79.99453156 124.09370346 79.99453156 124.09370346 79.98895264 123.1690979 C79.94691868 116.84135416 79.87742844 110.51432169 79.79248047 104.18701172 C79.76437454 101.8303135 79.74310877 99.47352282 79.72900391 97.11669922 C79.70743082 93.71534243 79.66070529 90.31508513 79.609375 86.9140625 C79.60814636 85.87198639 79.60691772 84.82991028 79.60565186 83.7562561 C79.40813494 73.73666098 76.6766797 66.418533 70 59 C70 58.34 70 57.68 70 57 C69.41605469 56.72027344 68.83210938 56.44054687 68.23046875 56.15234375 C65.49997756 54.74166967 63.02360301 53.04824274 60.48828125 51.31640625 C52.95430226 47.33061203 45.83114615 46.54080837 37.40234375 46.48828125 C36.32747208 46.47033005 35.2526004 46.45237885 34.14515686 46.43388367 C30.7426434 46.38009468 27.34026768 46.34598564 23.9375 46.3125 C21.6178195 46.27929924 19.29815711 46.24480706 16.97851562 46.20898438 C11.31899402 46.12197707 5.66008102 46.06163813 0 46 C0 30.82 0 15.64 0 0 Z " fill="#4CBE74" transform="translate(181,52)"/>
<path d="M0 0 C9.32800404 6.5209301 17.30717524 14.93476117 25.32470703 22.95410156 C27.48570177 25.11073066 29.66220943 27.2508156 31.83984375 29.390625 C54.24019044 51.60874089 69.91317554 76.56673171 70.3125 109 C70.21685747 124.77771925 65.82877271 138.13359849 54.9375 149.875 C43.76657449 160.38700947 29.48776477 165.51238 14.23828125 165.10546875 C13.49964844 165.07066406 12.76101562 165.03585937 12 165 C12.81020089 167.79235287 13.6230512 170.58388621 14.4375 173.375 C14.66759766 174.1690625 14.89769531 174.963125 15.13476562 175.78125 C15.35712891 176.54179687 15.57949219 177.30234375 15.80859375 178.0859375 C16.01282959 178.7876709 16.21706543 179.4894043 16.42749023 180.21240234 C16.97376321 182.07510758 16.97376321 182.07510758 18 184 C18.71205809 190.61196801 18.92989704 196.79127557 14.71505737 202.24279785 C9.94180962 207.13334049 3.35830268 208.45397316 -3.24368286 208.55578613 C-4.09397064 208.54768921 -4.94425842 208.53959229 -5.8203125 208.53125 C-6.72321014 208.5350769 -7.62610779 208.53890381 -8.55636597 208.54284668 C-10.45051194 208.54555 -12.34469627 208.53830046 -14.23876953 208.52148438 C-17.12487328 208.50000094 -20.00850243 208.52136531 -22.89453125 208.546875 C-24.74479711 208.54423242 -26.59506144 208.53910889 -28.4453125 208.53125 C-29.29964874 208.53934692 -30.15398499 208.54744385 -31.03421021 208.55578613 C-37.53830604 208.45470335 -41.88778026 206.91683375 -46.7421875 202.3671875 C-51.27374504 196.3980324 -51.82432869 192.45441316 -51 185 C-49.90578735 181.33023988 -48.61397027 177.81610236 -47.19140625 174.26171875 C-46.05388968 171.14753405 -45.43153851 168.27870064 -45 165 C-45.78761719 165.04640625 -46.57523438 165.0928125 -47.38671875 165.140625 C-61.71604247 165.61544283 -74.10180629 161.19169081 -85.28125 152.15625 C-95.91134724 142.18031259 -102.41350566 128.80503032 -103.203125 114.2578125 C-103.81188657 82.44424121 -90.23648018 56.3085336 -68.46777344 33.52197266 C-62.19705007 27.01969563 -55.8925611 20.6063041 -48.98046875 14.77734375 C-46.57651861 12.6199526 -44.40766746 10.28314003 -42.1875 7.9375 C-30.25087659 -4.16516609 -15.43678209 -7.80146891 0 0 Z M-38 24.875 C-42.91541018 29.9330074 -47.83344701 34.87168461 -53.20019531 39.45385742 C-70.81623561 54.58711613 -85.24753125 76.41701581 -87.25097656 99.94775391 C-88.40571911 118.02623301 -88.40571911 118.02623301 -81 134 C-80.17048828 135.14082031 -80.17048828 135.14082031 -79.32421875 136.3046875 C-73.94898572 143.05153171 -66.66486764 148.18312285 -57.93237305 149.25341797 C-45.36687046 150.10591657 -36.13929378 148.65194091 -26 140.625 C-21.18238371 138.01545785 -16.35453729 138.39928321 -11 139 C-7.875 140.125 -7.875 140.125 -5 142 C-3.31786517 143.05030858 -1.62983609 144.09120879 0.0625 145.125 C0.87847656 145.64320313 1.69445312 146.16140625 2.53515625 146.6953125 C10.03778436 150.66659267 20.93849745 149.93171937 29.140625 148.421875 C38.44506611 145.49762208 46.35056401 138.60039042 51.0390625 130.0546875 C51.35617188 129.37664062 51.67328125 128.69859375 52 128 C52.31710938 127.32195312 52.63421875 126.64390625 52.9609375 125.9453125 C58.90871 110.17553037 54.79074548 91.05017873 48.390625 76.08203125 C38.47745578 55.23254462 20.25932139 37.23510108 2.6953125 22.484375 C0.80978831 20.8334552 -0.8949453 19.06243826 -2.625 17.25 C-6.75234155 13.11336263 -10.46471476 10.89469371 -16.375 10.5 C-25.70180203 10.99083039 -31.90411197 18.53985357 -38 24.875 Z " fill="#030304" transform="translate(147,171)"/>
<path d="M0 0 C1.20463112 -0.00679667 1.20463112 -0.00679667 2.43359822 -0.01373065 C5.12190307 -0.02638065 7.81000549 -0.02475389 10.49833679 -0.02310181 C12.42695883 -0.0290867 14.35557846 -0.03589216 16.28419495 -0.04345703 C21.52188509 -0.06112868 26.75950988 -0.06581292 31.99722695 -0.0670886 C35.27029554 -0.06851015 38.54334751 -0.07277984 41.81641197 -0.07808304 C53.23725311 -0.09658749 64.65804756 -0.10475317 76.0789032 -0.10317993 C86.7211106 -0.10197857 97.36311518 -0.12307891 108.00527126 -0.15466726 C117.14513391 -0.18082869 126.28493033 -0.19154727 135.42483014 -0.19026911 C140.88231516 -0.18975942 146.33961995 -0.19544662 151.79706764 -0.21662521 C156.93122488 -0.23600512 162.06502994 -0.23613362 167.19919968 -0.22159195 C169.08092832 -0.21950242 170.96267899 -0.2242133 172.84436989 -0.23631287 C175.41879393 -0.25179139 177.99200754 -0.24244053 180.56640625 -0.22705078 C181.67611148 -0.24248147 181.67611148 -0.24248147 182.80823499 -0.25822389 C189.23942961 -0.17360979 194.34193497 2.00247546 199.21586609 6.19711304 C199.75469421 6.83906616 200.29352234 7.48101929 200.84867859 8.14242554 C201.40297546 8.77922241 201.95727234 9.41601929 202.52836609 10.07211304 C206.19386938 15.63971533 206.25460998 21.15278723 206.20072937 27.57748413 C206.20102142 28.49519592 206.20131348 29.41290771 206.20161438 30.35842896 C206.20022624 33.37767139 206.18468926 36.39666396 206.16899109 39.41586304 C206.16525913 41.51478948 206.16241302 43.61371767 206.16041565 45.71264648 C206.15279362 51.2265609 206.13315737 56.7403693 206.11100769 62.25424194 C206.09051847 67.88492397 206.08140735 73.51562319 206.07133484 79.14633179 C206.04991017 90.18674285 206.01579145 101.22707536 205.97367859 112.26742554 C205.42604355 111.85550964 204.87840851 111.44359375 204.31417847 111.01919556 C203.59490677 110.47881653 202.87563507 109.9384375 202.13456726 109.38168335 C201.42193222 108.84601746 200.70929718 108.31035156 199.97506714 107.75845337 C197.78000383 106.12313849 195.55725119 104.54546699 193.28617859 103.01742554 C192.5810614 102.53789429 191.87594421 102.05836304 191.14945984 101.56430054 C188.82913007 100.18126736 186.48755542 99.24462603 183.97367859 98.26742554 C183.96821014 97.06592361 183.96821014 97.06592361 183.96263123 95.84014893 C183.92470582 88.27764917 183.86780221 80.71563957 183.78977585 73.15345573 C183.75032907 69.2659732 183.71812716 65.37871622 183.7026825 61.49105835 C183.687497 57.73657978 183.65301918 53.9827214 183.60536957 50.22851944 C183.59057503 48.79891487 183.58263867 47.36922174 183.58179474 45.93954086 C183.57941791 43.93137981 183.55001272 41.92330656 183.51957703 39.91537476 C183.51069458 38.77398041 183.50181213 37.63258606 183.49266052 36.456604 C182.6505316 31.28166581 180.32554627 28.33677085 176.26144791 25.122015 C172.4944157 22.99707935 170.3238233 22.76487369 166.02848816 22.75949097 C165.01646922 22.75013102 165.01646922 22.75013102 163.98400545 22.74058199 C161.73606101 22.72469918 159.48920809 22.7372365 157.24125671 22.74984741 C155.62450531 22.74442415 154.00775885 22.73730034 152.39102173 22.72860718 C148.00875891 22.71039501 143.6268734 22.71743256 139.24460411 22.73012352 C134.65497712 22.74026213 130.06538207 22.73085545 125.47575378 22.72457886 C117.7687857 22.71730496 110.06197103 22.72688338 102.35502625 22.74594116 C93.44920765 22.76770944 84.54375537 22.76065788 75.63794565 22.73863554 C67.98680696 22.72047419 60.33577844 22.71792681 52.68462515 22.72839022 C48.11702058 22.73462111 43.54958809 22.73547191 38.98199463 22.72224426 C34.68742315 22.71067566 30.3933232 22.71872973 26.09880257 22.74182129 C24.52424464 22.74710301 22.94964692 22.74560374 21.3751049 22.73677063 C19.22249356 22.72580943 17.07138506 22.73958281 14.91886902 22.75949097 C13.71542595 22.76099907 12.51198288 22.76250717 11.27207184 22.76406097 C6.1592248 23.54432755 3.08481662 26.06458264 -0.36323547 29.79721069 C-2.75734115 34.79277999 -2.62936624 39.3155256 -2.63569641 44.79086304 C-2.65223267 45.8921756 -2.66876892 46.99348816 -2.68580627 48.12817383 C-2.73424794 51.63298136 -2.75564962 55.13735506 -2.77632141 58.64242554 C-2.80448415 61.02395773 -2.834412 63.40546976 -2.86616516 65.78695679 C-2.94331737 71.61397856 -2.98387574 77.43963477 -3.02632141 83.26742554 C-10.28632141 83.26742554 -17.54632141 83.26742554 -25.02632141 83.26742554 C-25.1169316 74.80025143 -25.19021444 66.33345848 -25.2335701 57.86592865 C-25.25438568 53.93349599 -25.28259148 50.00141415 -25.32807922 46.06918335 C-25.37175441 42.2695728 -25.3955038 38.47029827 -25.40583038 34.67045593 C-25.41318315 33.22564917 -25.4275411 31.7808594 -25.44924164 30.3361969 C-25.58128444 21.17588169 -25.37038003 14.22466142 -19.06147766 7.02523804 C-18.4105011 6.48640991 -17.75952454 5.94758179 -17.08882141 5.39242554 C-16.44042297 4.83812866 -15.79202454 4.28383179 -15.12397766 3.71273804 C-10.25846166 0.36033409 -5.78171779 -0.0239883 0 0 Z " fill="#D3D3FE" transform="translate(169.0263214111328,14.732574462890625)"/>
<path d="M0 0 C51.48 0 102.96 0 156 0 C156 10.23 156 20.46 156 31 C153.48375 31.515625 150.9675 32.03125 148.375 32.5625 C129.75174119 36.76300572 116.94907831 47.60779734 104 61 C100.87366116 59.43683058 100.36419836 56.69583989 98.9375 53.5625 C95.62821287 46.64147823 91.52158212 41.36713227 86 36 C85.38640625 35.36578125 84.7728125 34.7315625 84.140625 34.078125 C72.31382445 22.65565951 56.30574009 18.58085941 40.33203125 18.48828125 C39.17120529 18.47033005 38.01037933 18.45237885 36.81437683 18.43388367 C33.14712029 18.38018227 29.47999086 18.34601399 25.8125 18.3125 C23.30922725 18.2792915 20.8059712 18.24479863 18.30273438 18.20898438 C12.20191525 18.12447892 6.10113119 18.05747696 0 18 C0 12.06 0 6.12 0 0 Z " fill="#6ECD90" transform="translate(182,53)"/>
<path d="M0 0 C0 40.59 0 81.18 0 123 C-13.71789474 121.85684211 -13.71789474 121.85684211 -19.0625 120.625 C-20.12597656 120.39039063 -21.18945312 120.15578125 -22.28515625 119.9140625 C-25.13265143 118.9553375 -26.14568832 118.29448259 -28 116 C-28.31192551 113.08540853 -28.44060208 110.38197592 -28.43579102 107.46459961 C-28.44586685 106.59264954 -28.45594269 105.72069946 -28.46632385 104.82232666 C-28.49487659 101.93220263 -28.50068542 99.04260017 -28.50390625 96.15234375 C-28.51354712 94.14034307 -28.52363958 92.12834451 -28.53416443 90.11634827 C-28.55214751 85.8920505 -28.55768371 81.66793687 -28.5559082 77.44360352 C-28.55560434 72.04879624 -28.5964489 66.6551825 -28.64822483 61.26065731 C-28.68171316 57.10055708 -28.68766181 52.94074066 -28.68607903 48.78051949 C-28.68960441 46.79311598 -28.70279106 44.80570398 -28.72607613 42.81843376 C-28.93507718 23.12701265 -28.93507718 23.12701265 -22 15 C-21.28361107 14.01657875 -21.28361107 14.01657875 -20.55274963 13.01329041 C-16.30195308 7.18404942 -7.48881956 0 0 0 Z " fill="#D5485B" transform="translate(289,244)"/>
<path d="M0 0 C0.68167236 0.12552246 1.36334473 0.25104492 2.06567383 0.38037109 C8.2646955 1.51563682 14.46938695 2.5998855 20.6875 3.625 C22.1703386 3.87022057 23.65316667 4.11550476 25.13598633 4.36083984 C26.41111084 4.5717627 27.68623535 4.78268555 29 5 C28.95518356 9.85292471 28.88468712 14.70462871 28.79248047 19.55688477 C28.76461716 21.20033946 28.74323446 22.84391955 28.72900391 24.48754883 C28.53748888 45.38183766 23.93880718 64.12534352 8.76171875 79.375 C2.41358687 85.40886793 -4.55409271 91.19928463 -13 94 C-17.14629719 93.6326696 -19.14959692 91.20937557 -21.984375 88.34375 C-22.44483215 87.88141968 -22.90528931 87.41908936 -23.37969971 86.94274902 C-24.34797417 85.96776957 -25.31265279 84.98920742 -26.27392578 84.00732422 C-27.75167309 82.49829149 -29.23994947 81.00031497 -30.73046875 79.50390625 C-38 72.16345425 -38 72.16345425 -38 71 C-37.01773438 70.88785156 -37.01773438 70.88785156 -36.015625 70.7734375 C-25.42991605 69.24837774 -16.04355777 65.22747484 -8.6875 57.2890625 C-4.44661163 51.53637596 -0.95009503 44.11155517 -0.79467773 36.89575195 C-0.77473251 36.07512772 -0.75478729 35.25450348 -0.73423767 34.40901184 C-0.71752518 33.52767075 -0.70081268 32.64632965 -0.68359375 31.73828125 C-0.66281265 30.83248825 -0.64203156 29.92669525 -0.62062073 28.99345398 C-0.55523442 26.09987984 -0.49629096 23.20621493 -0.4375 20.3125 C-0.3943044 18.35090207 -0.35068977 16.38931332 -0.30664062 14.42773438 C-0.19956418 9.61858261 -0.09826586 4.80933954 0 0 Z " fill="#D2D2FC" transform="translate(261,377)"/>
<path d="M0 0 C0 18.81 0 37.62 0 57 C-3.96 58.32 -7.92 59.64 -12 61 C-15.57449201 62.70782157 -15.57449201 62.70782157 -18.5 64.5625 C-19.4590625 65.14128906 -20.418125 65.72007812 -21.40625 66.31640625 C-23.68495934 67.79550824 -25.8375349 69.358905 -28 71 C-32.45289921 30.87121006 -32.45289921 30.87121006 -23.94107056 19.2074585 C-7.87854618 0 -7.87854618 0 0 0 Z " fill="#D0D0FA" transform="translate(289,172)"/>
<path d="M0 0 C4.38076574 2.19038287 6.91089222 3.76221698 8.6015625 8.49609375 C9.2057716 11.74539603 9.68310391 14.97070302 10.10693359 18.24560547 C10.79304551 22.43182233 12.29969918 26.40521521 13.66015625 30.41015625 C14.41887546 33.17543743 14.65788123 35.36495767 14.4296875 38.21484375 C13.4296875 39.21484375 13.4296875 39.21484375 9.91967773 39.32836914 C8.35920328 39.32821001 6.79872357 39.32251517 5.23828125 39.3125 C4.41844254 39.31108505 3.59860382 39.3096701 2.75392151 39.30821228 C0.12497368 39.30259664 -2.50389023 39.29004154 -5.1328125 39.27734375 C-6.91080607 39.27233076 -8.68880096 39.26776751 -10.46679688 39.26367188 C-14.83466795 39.25262214 -19.20247598 39.23534706 -23.5703125 39.21484375 C-24.54083032 35.02369315 -24.39444375 32.93462923 -22.8203125 28.90234375 C-21.49135937 25.29900773 -20.45527461 21.92383025 -19.984375 18.12109375 C-18.66102474 7.47145104 -18.66102474 7.47145104 -15.3359375 3.640625 C-10.14412563 -0.14571117 -6.32954597 -1.93349353 0 0 Z " fill="#5D57BD" transform="translate(135.5703125,324.78515625)"/>
<path d="M0 0 C5.94640242 0.7433003 9.62442304 1.36732967 14.9375 3.5 C16.06027344 3.9434375 17.18304688 4.386875 18.33984375 4.84375 C21 6 21 6 22 7 C22.08851529 9.59359322 22.11525945 12.16039691 22.09765625 14.75390625 C22.0962413 15.52935287 22.09482635 16.3047995 22.09336853 17.10374451 C22.08775345 19.59003494 22.07519846 22.0762366 22.0625 24.5625 C22.05748694 26.24413933 22.0529237 27.92578006 22.04882812 29.60742188 C22.03777913 33.73831566 22.02050445 37.86914276 22 42 C21.47688232 41.60458008 20.95376465 41.20916016 20.41479492 40.80175781 C16.75959056 38.04784248 13.1106674 35.30551374 9.3125 32.75 C8.60738281 32.27046875 7.90226562 31.7909375 7.17578125 31.296875 C4.62100278 29.69725349 4.62100278 29.69725349 0 28 C0 18.76 0 9.52 0 0 Z " fill="#9DA1E2" transform="translate(353,85)"/>
<path d="M0 0 C7.26 0 14.52 0 22 0 C22 8.91 22 17.82 22 27 C14.74 27 7.48 27 0 27 C0 18.09 0 9.18 0 0 Z " fill="#9EA2E3" transform="translate(144,71)"/>
</svg>
